<svg viewBox="0 0 799 140" fill="none" xmlns="http://www.w3.org/2000/svg">
<mask id="mask0_2_3155" style="mask-type:alpha" maskUnits="userSpaceOnUse" x="0" y="0" width="140" height="140">
<path fill-rule="evenodd" clip-rule="evenodd" d="M69.825 127.777C101.831 127.777 127.777 101.831 127.777 69.825C127.777 37.819 101.831 11.8731 69.825 11.8731C37.819 11.8731 11.8731 37.819 11.8731 69.825C11.8731 101.831 37.819 127.777 69.825 127.777ZM69.825 139.65C108.388 139.65 139.65 108.388 139.65 69.825C139.65 31.2617 108.388 0 69.825 0C31.2617 0 0 31.2617 0 69.825C0 108.388 31.2617 139.65 69.825 139.65Z" fill="#531176"/>
<path d="M60.5344 111.115C61.5198 107.912 64.4788 105.727 67.8296 105.727H71.8203C75.1711 105.727 78.1301 107.912 79.1155 111.115L84.2423 127.777H55.4077L60.5344 111.115Z" fill="#531176"/>
<path d="M67.696 83.8335C68.4582 85.9934 71.7585 85.9938 72.5212 83.834C77.3888 70.0511 84.1619 61.9828 100.126 56.1871C102.287 55.4025 102.287 52.0208 100.126 51.2366C84.1598 45.4429 77.3871 37.3836 72.5193 23.5896C71.7571 21.4296 68.4569 21.4292 67.6941 23.589C62.8265 37.3719 56.0534 45.4402 40.0894 51.236C37.9284 52.0205 37.9285 55.4023 40.0896 56.1865C56.0555 61.9801 62.8282 70.0395 67.696 83.8335Z" fill="#531176"/>
<path fill-rule="evenodd" clip-rule="evenodd" d="M53.1461 77.4621V115.338C39.1063 112.778 28.2692 96.1266 28.2692 75.9667C28.2692 73.3832 28.4472 70.8574 28.787 68.4115C30.5431 69.0799 33.2817 69.7998 36.3049 70.5945C43.1879 72.4037 51.5465 74.6008 53.1461 77.4621Z" fill="#531176"/>
<path fill-rule="evenodd" clip-rule="evenodd" d="M86.5038 77.4621V115.338C100.544 112.778 111.381 96.1266 111.381 75.9667C111.381 73.3832 111.203 70.8574 110.863 68.4115C109.107 69.0799 106.368 69.7998 103.345 70.5945C96.462 72.4037 88.1034 74.6008 86.5038 77.4621Z" fill="#531176"/>
</mask>
<g mask="url(#mask0_2_3155)">
<rect x="-10.7437" y="139.65" width="139.65" height="162.265" transform="rotate(-90 -10.7437 139.65)" fill="url(#paint0_linear_2_3155)"/>
</g>
<path d="M198.395 14.2314V72.9332L193.366 77.3818H208.259L203.23 73.0299V22.0647L225.28 77.3818H230.405L251.294 23.1285V72.9332L246.265 77.3818H277.405L272.377 72.9332V14.2314L277.405 9.78282H251.294L236.401 48.4661L221.121 9.78282H193.366L198.395 14.2314ZM309.392 23.5154L313.647 19.7438H287.052L291.404 23.5154V73.6102L287.052 77.3818H313.647L309.392 73.6102V23.5154ZM336.083 77.3818L331.731 73.6102V30.6718L368.964 77.3818H381.246V23.5154L385.501 19.7438H372.832L377.087 23.5154V58.7171L346.044 19.7438H323.318L327.67 25.3528V73.6102L323.318 77.3818H336.083ZM403.214 23.8055H415.303V73.6102L410.951 77.3818H437.642L433.291 73.6102V23.8055H445.379L453.406 33.0895V19.7438H395.188V33.0895L403.214 23.8055ZM460.636 48.5628C460.636 66.0669 475.045 77.962 493.323 77.962C511.697 77.962 526.107 66.0669 526.107 48.5628C526.107 31.0586 511.697 19.1635 493.323 19.1635C475.045 19.1635 460.636 31.0586 460.636 48.5628ZM493.323 23.322C501.833 23.322 503.864 35.7006 503.864 48.5628C503.864 61.4249 501.833 73.8036 493.323 73.8036C484.909 73.8036 482.782 61.4249 482.782 48.5628C482.782 35.7006 484.909 23.322 493.323 23.322ZM580.974 73.32H558.151V23.5154L562.406 19.7438H535.811L540.163 23.5154V73.6102L535.811 77.3818H589V64.0361L580.974 73.32ZM596.254 48.5628C596.254 66.0669 610.663 77.962 628.941 77.962C647.315 77.962 661.725 66.0669 661.725 48.5628C661.725 31.0586 647.315 19.1635 628.941 19.1635C610.663 19.1635 596.254 31.0586 596.254 48.5628ZM628.941 23.322C637.451 23.322 639.482 35.7006 639.482 48.5628C639.482 61.4249 637.451 73.8036 628.941 73.8036C620.527 73.8036 618.4 61.4249 618.4 48.5628C618.4 35.7006 620.527 23.322 628.941 23.322ZM671.429 48.5628C671.429 66.0669 686.709 77.962 706.147 77.962C712.046 77.962 717.462 76.8015 722.007 74.4805L730.614 77.962V60.1677L736.707 54.8488H710.015L716.011 60.1677V72.0628C713.207 73.2233 710.015 73.8036 706.147 73.8036C697.83 73.8036 692.705 61.4249 692.705 48.5628C692.705 35.7006 698.314 23.322 706.147 23.322C710.596 23.322 714.271 24.1923 717.269 25.6429L728.97 38.9887V22.7417L723.071 24.1923C718.623 21.001 712.917 19.1635 706.147 19.1635C686.225 19.1635 671.429 31.0586 671.429 48.5628ZM734.27 19.7438L738.622 23.5154L755.256 48.3693V73.6102L750.904 77.3818H777.596L773.244 73.6102V45.8549L788.427 23.5154L792.779 19.7438H779.24L783.591 23.5154L771.503 41.0195L759.511 23.5154L763.766 19.7438H734.27Z" fill="#2D2D2D"/>
<path d="M194.17 132.18V99.8611H204.921C206.986 99.8611 208.751 100.063 210.217 100.467C211.684 100.856 212.888 101.417 213.831 102.15C214.774 102.883 215.462 103.781 215.896 104.844C216.345 105.891 216.569 107.073 216.569 108.39C216.569 109.153 216.449 109.893 216.21 110.612C215.985 111.33 215.626 111.996 215.133 112.609C214.654 113.223 214.048 113.784 213.315 114.292C212.582 114.786 211.714 115.198 210.711 115.527C213 116.006 214.714 116.851 215.851 118.063C217.003 119.275 217.579 120.853 217.579 122.799C217.579 124.175 217.317 125.439 216.793 126.592C216.285 127.729 215.537 128.716 214.549 129.554C213.577 130.377 212.372 131.02 210.936 131.484C209.499 131.948 207.861 132.18 206.02 132.18H194.17ZM199.422 117.771V128.028H205.931C207.113 128.028 208.108 127.893 208.916 127.624C209.739 127.34 210.404 126.958 210.913 126.479C211.437 126.001 211.811 125.439 212.035 124.796C212.275 124.138 212.394 123.434 212.394 122.686C212.394 121.16 211.871 119.963 210.823 119.095C209.791 118.213 208.153 117.771 205.908 117.771H199.422ZM199.422 114.068H204.674C206.918 114.068 208.594 113.634 209.701 112.766C210.808 111.898 211.362 110.649 211.362 109.018C211.362 107.238 210.838 105.951 209.791 105.158C208.759 104.365 207.135 103.968 204.921 103.968H199.422V114.068ZM229.77 138.689C229.606 139.033 229.404 139.302 229.165 139.497C228.94 139.691 228.588 139.788 228.11 139.788H224.541L228.761 130.631L219.424 109.287H223.621C224.025 109.287 224.332 109.385 224.541 109.579C224.766 109.759 224.93 109.976 225.035 110.23L230.489 123.225C230.758 123.973 230.982 124.721 231.162 125.469C231.282 125.08 231.401 124.699 231.521 124.325C231.656 123.951 231.798 123.577 231.948 123.203L237.177 110.23C237.282 109.961 237.454 109.736 237.693 109.557C237.947 109.377 238.224 109.287 238.524 109.287L242.384 109.287L229.77 138.689ZM272.574 119.522C272.783 119.956 272.993 120.405 273.202 120.868C273.412 121.317 273.599 121.781 273.763 122.26C273.943 121.781 274.13 121.31 274.324 120.846C274.534 120.367 274.751 119.911 274.975 119.477L285.187 100.736C285.397 100.317 285.629 100.071 285.883 99.9957C286.137 99.906 286.496 99.8611 286.96 99.8611H290.888V132.18H286.265V110.028C286.265 109.669 286.272 109.28 286.287 108.861C286.317 108.442 286.347 108.016 286.377 107.582L276.008 126.749C275.604 127.542 274.983 127.938 274.145 127.938H273.404C272.551 127.938 271.93 127.542 271.541 126.749L260.97 107.514C261.015 107.963 261.053 108.405 261.083 108.839C261.113 109.258 261.128 109.654 261.128 110.028V132.18H256.504V99.8611H260.432C260.896 99.8611 261.255 99.906 261.509 99.9957C261.763 100.071 261.995 100.317 262.205 100.736L272.574 119.522ZM302.321 109.287V132.18L297.496 132.18V109.287H302.321ZM303.129 102.375C303.129 102.809 303.039 103.22 302.86 103.609C302.695 103.998 302.463 104.342 302.164 104.642C301.865 104.926 301.513 105.158 301.109 105.337C300.72 105.502 300.301 105.584 299.852 105.584C299.419 105.584 299.007 105.502 298.618 105.337C298.244 105.158 297.915 104.926 297.631 104.642C297.346 104.342 297.114 103.998 296.935 103.609C296.77 103.22 296.688 102.809 296.688 102.375C296.688 101.926 296.77 101.507 296.935 101.118C297.114 100.729 297.346 100.392 297.631 100.108C297.915 99.8087 298.244 99.5768 298.618 99.4122C299.007 99.2326 299.419 99.1429 299.852 99.1429C300.301 99.1429 300.72 99.2326 301.109 99.4122C301.513 99.5768 301.865 99.8087 302.164 100.108C302.463 100.392 302.695 100.729 302.86 101.118C303.039 101.507 303.129 101.926 303.129 102.375ZM308.384 132.18V109.287H311.302C311.96 109.287 312.379 109.594 312.559 110.208L312.895 112.34C313.374 111.831 313.875 111.367 314.399 110.948C314.938 110.529 315.506 110.17 316.105 109.871C316.703 109.572 317.339 109.34 318.013 109.175C318.701 109.011 319.442 108.928 320.235 108.928C321.491 108.928 322.591 109.138 323.534 109.557C324.491 109.976 325.292 110.567 325.935 111.33C326.594 112.093 327.087 113.013 327.417 114.09C327.746 115.153 327.91 116.327 327.91 117.614V132.18H323.107V117.614C323.107 116.073 322.748 114.876 322.03 114.023C321.327 113.17 320.25 112.744 318.798 112.744C317.721 112.744 316.718 112.991 315.791 113.484C314.878 113.978 314.018 114.651 313.21 115.504V132.18H308.384ZM340.578 132.539C338.678 132.539 337.211 132.008 336.179 130.946C335.162 129.868 334.653 128.357 334.653 126.412V113.08H332.139C331.87 113.08 331.638 112.998 331.443 112.834C331.249 112.654 331.152 112.392 331.152 112.048V110.095L334.855 109.557L335.91 102.936C335.985 102.681 336.112 102.48 336.291 102.33C336.471 102.165 336.71 102.083 337.009 102.083H339.478V109.602H345.83V113.08H339.478V126.075C339.478 126.898 339.68 127.527 340.084 127.961C340.488 128.395 341.027 128.611 341.7 128.611C342.074 128.611 342.396 128.567 342.665 128.477C342.935 128.372 343.167 128.267 343.361 128.163C343.556 128.043 343.72 127.938 343.855 127.848C344.004 127.744 344.147 127.691 344.281 127.691C344.551 127.691 344.768 127.841 344.932 128.14L346.369 130.497C345.62 131.155 344.738 131.664 343.72 132.023C342.703 132.367 341.655 132.539 340.578 132.539ZM364.401 132.18C363.938 132.18 363.586 132.113 363.347 131.978C363.107 131.828 362.905 131.537 362.741 131.103L362.269 129.24C361.686 129.779 361.11 130.25 360.541 130.654C359.972 131.058 359.381 131.402 358.768 131.686C358.169 131.971 357.519 132.18 356.815 132.315C356.127 132.464 355.364 132.539 354.526 132.539C353.598 132.539 352.731 132.412 351.923 132.158C351.13 131.903 350.441 131.522 349.858 131.013C349.274 130.489 348.81 129.846 348.466 129.083C348.137 128.32 347.973 127.422 347.973 126.39C347.973 125.507 348.204 124.646 348.668 123.809C349.147 122.971 349.925 122.223 351.002 121.564C352.095 120.891 353.524 120.337 355.289 119.903C357.07 119.469 359.262 119.223 361.865 119.163V117.637C361.865 115.991 361.514 114.764 360.81 113.956C360.107 113.148 359.075 112.744 357.713 112.744C356.785 112.744 356.007 112.863 355.379 113.103C354.751 113.327 354.204 113.574 353.741 113.844C353.277 114.113 352.865 114.367 352.506 114.607C352.147 114.831 351.766 114.943 351.362 114.943C351.032 114.943 350.748 114.861 350.509 114.696C350.284 114.517 350.097 114.3 349.948 114.046L349.072 112.474C351.661 110.065 354.743 108.861 358.319 108.861C359.636 108.861 360.803 109.078 361.82 109.512C362.853 109.931 363.713 110.529 364.401 111.307C365.105 112.085 365.636 113.013 365.995 114.09C366.369 115.153 366.556 116.335 366.556 117.637V132.18H364.401ZM355.985 129.173C357.242 129.173 358.319 128.941 359.217 128.477C360.13 127.998 361.012 127.317 361.865 126.434V122.17C360.145 122.245 358.693 122.387 357.511 122.597C356.329 122.806 355.371 123.083 354.638 123.427C353.905 123.771 353.374 124.175 353.045 124.639C352.731 125.088 352.574 125.589 352.574 126.143C352.574 126.681 352.656 127.145 352.82 127.534C353 127.908 353.239 128.222 353.539 128.477C353.853 128.716 354.212 128.896 354.616 129.015C355.035 129.12 355.491 129.173 355.985 129.173ZM372.209 132.18V98.9633H377.034V112.317C377.977 111.285 379.032 110.462 380.199 109.849C381.366 109.235 382.697 108.928 384.194 108.928C385.525 108.928 386.722 109.19 387.785 109.714C388.862 110.223 389.775 110.963 390.523 111.936C391.271 112.908 391.847 114.09 392.251 115.482C392.655 116.858 392.857 118.415 392.857 120.15C392.857 122.006 392.625 123.696 392.161 125.222C391.712 126.734 391.061 128.035 390.209 129.128C389.356 130.205 388.323 131.043 387.111 131.641C385.899 132.225 384.545 132.517 383.049 132.517C382.316 132.517 381.65 132.442 381.051 132.292C380.453 132.158 379.899 131.963 379.391 131.709C378.882 131.439 378.411 131.118 377.977 130.744C377.558 130.355 377.154 129.921 376.765 129.442L376.563 131.215C376.488 131.559 376.353 131.806 376.159 131.956C375.964 132.105 375.695 132.18 375.351 132.18H372.209ZM382.578 112.744C381.396 112.744 380.363 113.013 379.48 113.552C378.613 114.075 377.797 114.831 377.034 115.819V126.434C377.707 127.302 378.441 127.916 379.234 128.275C380.042 128.619 380.917 128.791 381.859 128.791C383.76 128.791 385.241 128.103 386.303 126.726C387.366 125.35 387.897 123.218 387.897 120.33C387.897 117.696 387.433 115.774 386.505 114.562C385.593 113.35 384.283 112.744 382.578 112.744ZM402.461 98.9633V132.18H397.635V98.9633H402.461ZM418 108.928C419.407 108.928 420.708 109.16 421.905 109.624C423.102 110.073 424.135 110.739 425.003 111.622C425.87 112.504 426.544 113.589 427.023 114.876C427.516 116.148 427.763 117.599 427.763 119.23C427.763 119.978 427.681 120.479 427.516 120.734C427.352 120.988 427.052 121.115 426.619 121.115L411.918 121.115C411.978 122.417 412.18 123.547 412.524 124.504C412.868 125.447 413.324 126.232 413.893 126.861C414.477 127.489 415.165 127.961 415.958 128.275C416.766 128.574 417.664 128.724 418.651 128.724C419.594 128.724 420.409 128.619 421.097 128.41C421.786 128.185 422.384 127.946 422.893 127.691C423.402 127.422 423.836 127.183 424.195 126.973C424.554 126.749 424.883 126.636 425.182 126.636C425.571 126.636 425.87 126.786 426.08 127.085L427.449 128.858C426.88 129.532 426.237 130.1 425.519 130.564C424.801 131.028 424.038 131.409 423.23 131.709C422.422 131.993 421.591 132.195 420.738 132.315C419.885 132.449 419.055 132.517 418.247 132.517C416.661 132.517 415.187 132.255 413.826 131.731C412.479 131.193 411.304 130.407 410.302 129.375C409.314 128.342 408.536 127.063 407.968 125.537C407.414 124.011 407.137 122.252 407.137 120.262C407.137 118.676 407.384 117.195 407.878 115.819C408.387 114.442 409.105 113.245 410.033 112.228C410.975 111.21 412.112 110.41 413.444 109.826C414.791 109.228 416.309 108.928 418 108.928ZM418.09 112.43C416.339 112.43 414.963 112.931 413.96 113.933C412.958 114.936 412.322 116.342 412.053 118.153L423.432 118.153C423.432 117.345 423.312 116.597 423.072 115.908C422.848 115.205 422.511 114.599 422.063 114.09C421.614 113.567 421.053 113.163 420.379 112.878C419.721 112.579 418.958 112.43 418.09 112.43Z" fill="#2D2D2D"/>
<defs>
<linearGradient id="paint0_linear_2_3155" x1="-9.41996" y1="301.915" x2="160.795" y2="251.191" gradientUnits="userSpaceOnUse">
<stop stop-color="#95C5EF"/>
<stop offset="0.532278" stop-color="#DC91F4"/>
<stop offset="1" stop-color="#EF74CA"/>
</linearGradient>
</defs>
</svg>
